<svg width="640" height="760" viewBox="0 0 640 760" fill="none" xmlns="http://www.w3.org/2000/svg">
  <rect width="640" height="760" rx="36" fill="#F3F5EE"/>
  <circle cx="128" cy="126" r="84" fill="#D9E2D0"/>
  <circle cx="523" cy="648" r="100" fill="#DED7C8"/>
  <rect x="132" y="138" width="384" height="476" rx="192" fill="#C99063"/>
  <path d="M189 313C189 226.292 259.292 156 346 156H365C442.32 156 505 218.68 505 296V348H189V313Z" fill="#232831"/>
  <ellipse cx="321" cy="374" rx="106" ry="126" fill="#E6B88F"/>
  <path d="M227 305C254 275 302 258 352 258C402 258 450 275 479 307V343H227V305Z" fill="#232831"/>
  <path d="M223 549C223 486.04 274.04 435 337 435H352C414.96 435 466 486.04 466 549V625H223V549Z" fill="#FFFFFF"/>
  <path d="M286 458H404L384 625H306L286 458Z" fill="#DCE6EC"/>
  <circle cx="282" cy="347" r="11" fill="#171B21"/>
  <circle cx="392" cy="347" r="11" fill="#171B21"/>
  <path d="M304 395C324 405 350 405 370 395" stroke="#BF7676" stroke-width="8" stroke-linecap="round"/>
  <path d="M310 415H365" stroke="#9A6D56" stroke-width="8" stroke-linecap="round"/>
</svg>
