<svg width="640" height="760" viewBox="0 0 640 760" fill="none" xmlns="http://www.w3.org/2000/svg">
  <rect width="640" height="760" rx="36" fill="#F7F2EA"/>
  <circle cx="507" cy="113" r="84" fill="#D8E7E2"/>
  <circle cx="117" cy="660" r="96" fill="#E7D5C4"/>
  <rect x="120" y="135" width="400" height="490" rx="200" fill="#E8B78E"/>
  <path d="M198 315C198 231.053 266.053 163 350 163H369C446.32 163 509 225.68 509 303V341H198V315Z" fill="#4C2E22"/>
  <ellipse cx="322" cy="372" rx="106" ry="126" fill="#F3C49C"/>
  <path d="M264 353C282.225 353 297 338.225 297 320C297 301.775 282.225 287 264 287C245.775 287 231 301.775 231 320C231 338.225 245.775 353 264 353Z" fill="#F3C49C"/>
  <path d="M438 353C456.225 353 471 338.225 471 320C471 301.775 456.225 287 438 287C419.775 287 405 301.775 405 320C405 338.225 419.775 353 438 353Z" fill="#F3C49C"/>
  <path d="M245 425C280 451 366 452 400 425" stroke="#8B5E3C" stroke-width="12" stroke-linecap="round"/>
  <path d="M232 294C263 252 313 231 362 231C412 231 456 258 471 307V331H232V294Z" fill="#4C2E22"/>
  <path d="M230 548C230 486.144 280.144 436 342 436H355C416.856 436 467 486.144 467 548V625H230V548Z" fill="#FFFDFC"/>
  <path d="M301 464H396L371 625H326L301 464Z" fill="#D9E5F1"/>
  <circle cx="279" cy="343" r="11" fill="#3B2A24"/>
  <circle cx="391" cy="343" r="11" fill="#3B2A24"/>
  <path d="M305 391C323 401 347 401 365 391" stroke="#D58A8A" stroke-width="8" stroke-linecap="round"/>
</svg>
