<svg width="640" height="760" viewBox="0 0 640 760" fill="none" xmlns="http://www.w3.org/2000/svg">
  <rect width="640" height="760" rx="36" fill="#EEF4F7"/>
  <circle cx="119" cy="109" r="88" fill="#D4E1EC"/>
  <circle cx="528" cy="646" r="92" fill="#E3D3C6"/>
  <rect x="132" y="140" width="384" height="474" rx="192" fill="#D1A37D"/>
  <path d="M194 309C194 226.71 260.71 160 343 160H363C441.425 160 505 223.575 505 302V353H194V309Z" fill="#2E2D37"/>
  <ellipse cx="320" cy="372" rx="104" ry="124" fill="#EAC09A"/>
  <path d="M232 298C262 272 309 256 356 256C404 256 451 274 481 305V344H232V298Z" fill="#2E2D37"/>
  <path d="M225 548C225 485.592 275.592 435 338 435H351C413.408 435 464 485.592 464 548V625H225V548Z" fill="#FFFFFF"/>
  <path d="M282 457H406L385 625H303L282 457Z" fill="#D9E9F4"/>
  <circle cx="282" cy="345" r="11" fill="#23222B"/>
  <circle cx="391" cy="345" r="11" fill="#23222B"/>
  <path d="M301 392C322 406 349 406 370 392" stroke="#C67B7B" stroke-width="8" stroke-linecap="round"/>
  <rect x="255" y="323" width="53" height="36" rx="18" stroke="#6A7482" stroke-width="8"/>
  <rect x="363" y="323" width="53" height="36" rx="18" stroke="#6A7482" stroke-width="8"/>
  <path d="M308 341H363" stroke="#6A7482" stroke-width="8" stroke-linecap="round"/>
</svg>
